<svg viewBox="0 0 294 100" fill="none" xmlns="http://www.w3.org/2000/svg">
<path d="M49.9999 18.7499C50.0154 16.1432 49.0529 13.6254 47.3025 11.6937C45.5521 9.76195 43.141 8.55674 40.5454 8.31602C37.9497 8.07529 35.3581 8.81654 33.2824 10.3934C31.2066 11.9703 29.7975 14.2681 29.3333 16.8333C27.9597 17.0906 26.652 17.6217 25.488 18.3949C24.324 19.168 23.3274 20.1675 22.5576 21.3338C21.7879 22.5002 21.2607 23.8094 21.0074 25.1837C20.7541 26.558 20.7799 27.9692 21.0833 29.3333C19.2027 29.6671 17.4501 30.5116 16.0171 31.7744C14.5841 33.0371 13.5259 34.6696 12.9582 36.4932C12.3905 38.3169 12.335 40.2615 12.798 42.1145C13.261 43.9676 14.2245 45.6576 15.5833 46.9999C13.298 48.055 11.3845 49.7754 10.0931 51.936C8.80179 54.0966 8.19281 56.5967 8.3459 59.1091C8.49899 61.6215 9.407 64.0292 10.9511 66.017C12.4952 68.0048 14.6035 69.4801 16.9999 70.2499C16.5424 71.9785 16.5375 73.7957 16.9857 75.5267C17.4339 77.2577 18.3202 78.8442 19.5592 80.1334C20.7982 81.4227 22.3482 82.3713 24.0601 82.8879C25.7719 83.4045 27.5879 83.4718 29.3333 83.0833C29.7634 85.4891 31.0258 87.6671 32.8996 89.2362C34.7734 90.8054 37.1393 91.6656 39.5833 91.6666C44.6249 91.6666 49.9999 88.5833 49.9999 81.2499M49.9999 18.7499C49.9845 16.1432 50.947 13.6254 52.6974 11.6937C54.4478 9.76195 56.8588 8.55674 59.4545 8.31602C62.0501 8.07529 64.6417 8.81654 66.7175 10.3934C68.7933 11.9703 70.2024 14.2681 70.6666 16.8333C72.0401 17.0906 73.3478 17.6217 74.5119 18.3949C75.6759 19.168 76.6725 20.1675 77.4422 21.3338C78.212 22.5002 78.7392 23.8094 78.9925 25.1837C79.2458 26.558 79.22 27.9692 78.9166 29.3333C80.7972 29.6671 82.5498 30.5116 83.9827 31.7744C85.4157 33.0371 86.4739 34.6696 87.0417 36.4932C87.6094 38.3169 87.6648 40.2615 87.2019 42.1145C86.7389 43.9676 85.7753 45.6576 84.4166 46.9999C86.7019 48.055 88.6154 49.7754 89.9067 51.936C91.1981 54.0966 91.807 56.5967 91.654 59.1091C91.5009 61.6215 90.5929 64.0292 89.0488 66.017C87.5047 68.0048 85.3964 69.4801 82.9999 70.2499C83.4575 71.9785 83.4624 73.7957 83.0142 75.5267C82.5659 77.2577 81.6797 78.8442 80.4406 80.1334C79.2016 81.4227 77.6516 82.3713 75.9398 82.8879C74.228 83.4045 72.412 83.4718 70.6666 83.0833C70.2364 85.4891 68.974 87.6671 67.1003 89.2362C65.2265 90.8054 62.8606 91.6656 60.4166 91.6666C55.3749 91.6666 49.9999 88.5833 49.9999 81.2499M49.9999 18.7499V20.8333ZM49.9999 81.2499V79.1666Z" fill="#D3B8FF"/>
<path d="M49.9984 25C49.0817 25 48.3317 26.4928 48.3317 28.3335C48.3317 29.2159 48.5088 30.0618 48.8213 30.6847C48.3317 30.7066 47.8837 30.8056 47.3941 30.9379V32.589C49.1755 32.3369 50.9464 32.3484 52.6028 32.589V30.9379C52.134 30.7972 51.6235 30.7181 51.1756 30.6847C51.4881 30.0618 51.6652 29.2159 51.6652 28.3335C51.6652 26.4928 50.9152 25 49.9984 25ZM32.313 32.3223C31.6619 32.9734 32.189 34.5537 33.4901 35.8559C34.1224 36.4809 34.8412 36.9601 35.5079 37.1789C35.1746 37.5435 34.9246 37.9289 34.6746 38.3665L35.8517 39.5332C36.883 38.1373 38.1331 36.8872 39.529 35.8559L38.3623 34.6787C37.9248 34.9079 37.5289 35.2204 37.1747 35.5121C36.956 34.8454 36.4768 34.1266 35.8517 33.5016C35.0183 32.8547 33.2943 31.3764 32.313 32.3223ZM64.1452 33.4995C63.5201 34.1266 63.0409 34.8454 62.8222 35.5121C62.4575 35.1788 62.0721 34.9287 61.6346 34.6787L60.4678 35.8559C61.8638 36.8872 63.1138 38.1373 64.1452 39.5332L65.3223 38.3665C65.0931 37.9289 64.7806 37.5331 64.4889 37.1789C65.1452 36.9497 65.864 36.4809 66.489 35.8559C67.7912 34.5537 68.3225 32.9713 67.6662 32.3213C66.6349 31.5014 64.7494 32.9067 64.1452 33.4995ZM49.3213 34.2829C45.4877 34.4495 42.0084 35.9809 39.3624 38.4081C39.0186 38.7311 38.6748 39.0644 38.404 39.3665C35.9767 42.0125 34.4454 45.4919 34.2787 49.3359C34.2787 49.8047 34.2579 50.2839 34.2891 50.6901C34.4454 54.5237 35.9767 58.0031 38.404 60.6491C38.7269 60.9825 39.0707 61.3262 39.3624 61.6075C42.0084 64.0243 45.4877 65.5557 49.3213 65.7223H49.3421C49.7693 65.7432 50.2485 65.7223 50.6756 65.7223C54.5091 65.5557 57.9885 64.0243 60.6345 61.5971C60.9783 61.2741 61.3221 60.9408 61.5929 60.6387C64.0201 57.9927 65.5515 54.5133 65.7182 50.6797V50.6589C65.739 50.2214 65.7182 49.7526 65.7182 49.3255C65.5515 45.4919 64.0201 42.0125 61.5929 39.3665C61.27 39.0228 60.9366 38.679 60.6345 38.4081C57.9885 35.9809 54.5091 34.4495 50.6756 34.2829C50.2068 34.262 49.7276 34.2829 49.3213 34.2829ZM49.9984 35.3975C50.4568 35.3975 50.8318 35.7725 50.8318 36.2309C50.8318 36.6893 50.4568 37.0643 49.9984 37.0643C49.5401 37.0643 49.1651 36.6893 49.1651 36.2309C49.1651 35.7725 49.5401 35.3975 49.9984 35.3975ZM50.7172 38.356C53.3945 38.5227 55.8321 39.5853 57.7281 41.2625C58.0823 41.5854 58.426 41.9188 58.7386 42.273C60.4158 44.1689 61.4783 46.6066 61.645 49.2942C61.6867 49.7734 61.645 50.2526 61.645 50.7214C61.4783 53.3986 60.4158 55.8363 58.7386 57.7323C58.4156 58.0864 58.0823 58.4302 57.7281 58.7427C55.8321 60.4199 53.3945 61.4825 50.7068 61.6492C50.2276 61.6596 49.7484 61.6908 49.2796 61.6492C46.6024 61.4825 44.1647 60.4199 42.2792 58.7427H42.2688C41.9146 58.4302 41.5812 58.0864 41.2687 57.7323C39.5915 55.8467 38.5186 53.4091 38.3519 50.7214C38.3415 50.2422 38.3102 49.7734 38.3519 49.3046C38.404 46.617 39.7374 44.0439 41.2583 42.273C41.5812 41.9188 41.9146 41.575 42.2688 41.2625C44.1647 39.5853 46.6024 38.5227 49.2901 38.356C49.7693 38.3144 50.2485 38.356 50.7172 38.356ZM40.8416 39.6686C41.1646 39.9916 41.1646 40.5228 40.8416 40.8458C40.5187 41.1687 39.9874 41.1687 39.6645 40.8458C39.3415 40.5228 39.3415 39.9916 39.6645 39.6686C40.0291 39.3665 40.5187 39.3665 40.8416 39.6686ZM60.3324 39.6686C60.6554 39.9916 60.6554 40.5228 60.3324 40.8458C60.0095 41.1687 59.4782 41.1687 59.1553 40.8458C58.8323 40.5228 58.8323 39.9916 59.1553 39.6686C59.5199 39.3665 60.0095 39.3665 60.3324 39.6686ZM48.3317 40.3458V41.2521C48.5921 41.5854 48.79 41.825 49.1442 41.9604C49.0713 43.2522 48.9775 44.5752 48.8525 45.8878C49.6234 45.6898 50.436 45.6794 51.1548 45.8982C51.0298 44.5752 50.9256 43.2522 50.8527 41.95C51.6756 41.7313 51.6652 41.0541 51.6652 40.3458C50.5193 40.1687 49.3942 40.1791 48.3317 40.3458ZM44.3418 41.9917C43.4355 42.6376 42.6334 43.4397 41.9875 44.346L42.6334 44.9919C43.0501 45.044 43.3626 45.0752 43.7064 44.919C44.571 45.8878 45.4357 46.8878 46.2795 47.9087C46.6649 47.2316 47.2274 46.6691 47.915 46.2836C46.8837 45.4398 45.8836 44.5752 44.9148 43.7105C45.1023 43.3876 45.0502 43.0126 44.9877 42.6376L44.3418 41.9917ZM55.655 41.9917L55.0092 42.6376C54.9362 43.0543 54.9258 43.3564 55.0717 43.7105C54.1133 44.5752 53.1028 45.4398 52.0819 46.2836C52.759 46.6691 53.3216 47.2316 53.707 47.9191C54.5508 46.8878 55.4259 45.8878 56.2801 44.919C56.6134 45.096 56.978 45.0544 57.3531 44.9919L57.9989 44.346C57.3531 43.4397 56.5613 42.6376 55.655 41.9917ZM67.4058 47.3983C67.6662 49.1796 67.6454 50.9506 67.4058 52.6069H69.0621C69.2184 52.1382 69.2705 51.6277 69.3017 51.1798C69.9268 51.4923 70.781 51.6694 71.6665 51.6694C73.5103 51.6694 75 50.9193 75 50.0026C75 49.0859 73.5103 48.3358 71.6665 48.3358C70.781 48.3358 69.9268 48.5129 69.3017 48.8254C69.2913 48.3358 69.1976 47.8879 69.0621 47.3983H67.4058ZM30.9379 47.4087C30.7972 47.8775 30.7181 48.3671 30.6879 48.8254C30.0607 48.5129 29.2138 48.3463 28.3335 48.3463C26.4928 48.3463 25 49.0963 25 50.013C25 50.9297 26.4928 51.6798 28.3335 51.6798C29.2169 51.6798 30.0639 51.5027 30.6879 51.1902C30.7035 51.6798 30.8045 52.1277 30.9379 52.6174H32.5838C32.3359 50.836 32.3234 49.065 32.5838 47.4087H30.9379ZM49.9984 47.6066C48.6546 47.6066 47.6025 48.6692 47.6025 50.0026C47.6025 51.336 48.6546 52.3986 49.9984 52.3986C51.3319 52.3986 52.3944 51.336 52.3944 50.0026C52.3944 48.6692 51.3319 47.6066 49.9984 47.6066ZM58.749 48.3358C58.4156 48.5963 58.176 48.7942 58.0406 49.1484C56.7489 49.0755 55.4259 48.9817 54.1133 48.8567C54.3112 49.638 54.3112 50.4401 54.1133 51.1589C55.4259 51.0339 56.7384 50.9297 58.0406 50.8568C58.1448 51.2214 58.4365 51.4506 58.749 51.6694H59.6553C59.8324 50.5235 59.822 49.3984 59.6553 48.3358H58.749ZM40.3416 48.3463C40.1645 49.4817 40.1853 50.6172 40.3416 51.6798H41.2479C41.5708 51.4194 41.8313 51.2318 41.9459 50.8672C43.248 50.9297 44.5606 51.0339 45.8836 51.1589C45.6753 50.3776 45.6752 49.5755 45.8732 48.8567C44.5606 48.9817 43.2376 49.0755 41.9459 49.1484C41.8521 48.7838 41.55 48.5546 41.2479 48.3463H40.3416ZM63.7701 49.1692C64.2285 49.1692 64.6035 49.5442 64.6035 50.0026C64.6035 50.461 64.2285 50.836 63.7701 50.836C63.3118 50.836 62.9367 50.461 62.9367 50.0026C62.9367 49.5442 63.3118 49.1692 63.7701 49.1692ZM36.2267 49.1796C36.6851 49.1796 37.0601 49.5547 37.0601 50.013C37.0601 50.4714 36.6851 50.8464 36.2267 50.8464C35.7684 50.8464 35.3934 50.4714 35.3934 50.013C35.3934 49.5547 35.7684 49.1796 36.2267 49.1796ZM53.7174 52.0965C53.332 52.7736 52.7694 53.3361 52.0819 53.7216C53.1132 54.5654 54.1133 55.43 55.0821 56.2947C54.8946 56.6176 54.9467 56.9926 55.0092 57.3676L55.655 58.0135C56.5613 57.3676 57.3635 56.5655 58.0094 55.6592L57.3635 55.0133C56.9468 54.9612 56.6343 54.93 56.2905 55.0863C55.4259 54.1174 54.5612 53.1174 53.7174 52.0965ZM46.2795 52.0965C45.4357 53.1174 44.571 54.1174 43.7064 55.0863C43.3834 54.8987 43.0084 54.9508 42.6438 55.0133L41.9875 55.6592C42.6334 56.5759 43.4355 57.3781 44.3523 58.0135L44.9981 57.3676C45.0502 56.951 45.0815 56.6384 44.9252 56.2947C45.894 55.43 46.8941 54.5654 47.915 53.7216C47.2378 53.3361 46.6649 52.7736 46.2795 52.0965ZM48.8421 54.107C48.9671 55.43 49.0713 56.753 49.1442 58.0552C48.7796 58.1385 48.54 58.451 48.3317 58.7532V59.6595C49.4776 59.8366 50.6026 59.8261 51.6652 59.6595V58.7532C51.4048 58.4198 51.2068 58.1802 50.8527 58.0448C50.9256 56.753 51.0193 55.43 51.1443 54.1174C50.3422 54.2529 49.4984 54.2945 48.8421 54.107ZM40.852 59.1594C41.175 59.4824 41.175 60.0136 40.852 60.3366C40.5291 60.6595 39.9978 60.6595 39.6749 60.3366C39.3519 60.0136 39.3519 59.4824 39.6749 59.1594C40.0395 58.8469 40.5291 58.8469 40.852 59.1594ZM60.3324 59.1594C60.6554 59.4824 60.6554 60.0136 60.3324 60.3366C60.0095 60.6595 59.4782 60.6595 59.1553 60.3366C58.8323 60.0136 58.8323 59.4824 59.1553 59.1594C59.5199 58.8469 60.0199 58.8469 60.3324 59.1594ZM64.1452 60.472C63.1138 61.8679 61.8638 63.118 60.4678 64.1493L61.6346 65.3265C62.0721 65.0973 62.468 64.7848 62.8222 64.4931C63.0409 65.1598 63.5201 65.8786 64.1452 66.5036C65.4473 67.8058 67.0203 68.3267 67.6766 67.6808C68.3225 67.0245 67.8016 65.4515 66.4995 64.1493C65.8744 63.5243 65.1556 63.0451 64.4889 62.8263C64.8223 62.4617 65.0723 62.0763 65.3223 61.6388L64.1452 60.472ZM35.8517 60.472L34.685 61.6388C34.9246 62.0659 35.2163 62.493 35.5184 62.8263C34.8517 63.0451 34.1329 63.5243 33.5005 64.1493C32.2015 65.4515 31.6754 67.0245 32.3234 67.6808C32.9734 68.3371 34.56 67.8058 35.8621 66.5036C36.4872 65.8786 36.9664 65.1598 37.1851 64.4931C37.5497 64.8264 37.9352 65.0765 38.3727 65.3265L39.5395 64.1597C38.1331 63.118 36.8935 61.8783 35.8517 60.472ZM49.9984 62.9409C50.4568 62.9409 50.8318 63.3159 50.8318 63.7743C50.8318 64.2327 50.4568 64.6077 49.9984 64.6077C49.5401 64.6077 49.1651 64.2327 49.1651 63.7743C49.1651 63.3159 49.5401 62.9409 49.9984 62.9409ZM47.3941 67.4204V69.0663C47.8629 69.2121 48.3733 69.2851 48.8213 69.3163C48.5088 69.9414 48.3317 70.7852 48.3317 71.6706C48.3317 73.5145 49.0817 75.0042 49.9984 75.0042C50.9152 75.0042 51.6652 73.5145 51.6652 71.6706C51.6652 70.7852 51.4881 69.9414 51.1756 69.3163C51.6652 69.2955 52.1132 69.2017 52.6028 69.0663V67.4099C50.8214 67.6704 49.0505 67.66 47.3941 67.4204Z" fill="#2C3E50"/>
<path d="M103.43 43.95C106.86 42.9 110.08 42.375 113.09 42.375C116.123 42.375 118.538 42.935 120.335 44.055C120.732 45.245 120.93 46.3883 120.93 47.485C120.93 49.935 119.88 51.9417 117.78 53.505C119.11 54.5317 120.148 55.6983 120.895 57.005C121.665 58.3117 122.05 59.525 122.05 60.645C122.05 62.4883 121.198 63.9933 119.495 65.16C117.792 66.3267 115.132 66.91 111.515 66.91C109.462 66.91 107.432 66.77 105.425 66.49L103.43 43.95ZM109.17 63.9C110.453 64.25 111.678 64.425 112.845 64.425C114.012 64.425 114.782 64.355 115.155 64.215C115.972 62.5817 116.38 60.9367 116.38 59.28C116.38 57.6 115.995 56.165 115.225 54.975C113.825 55.605 112.063 56.165 109.94 56.655L109.17 63.9ZM115.26 48.71C115.26 47.9633 115.097 47.205 114.77 46.435C114.443 45.6417 113.988 45.0467 113.405 44.65C112.868 44.65 112.122 44.79 111.165 45.07L110.15 54.66C111.713 54.03 112.95 53.1667 113.86 52.07C114.793 50.95 115.26 49.83 115.26 48.71ZM137.98 54.485C136.394 54.485 135.192 55.045 134.375 56.165C133.559 57.2617 132.964 59.2917 132.59 62.255L132.1 66.21L128.635 66.525L126.85 49.165L134.34 48.01L133.64 53.61H133.885C135.752 49.5967 138.132 47.4617 141.025 47.205L140.045 54.66C139.182 54.5433 138.494 54.485 137.98 54.485ZM145.741 66.805C145.344 66.805 145.052 66.7933 144.866 66.77C144.072 66.2333 143.431 65.44 142.941 64.39C142.474 63.3167 142.241 62.2083 142.241 61.065C142.241 59.5717 142.801 58.4867 143.921 57.81C145.064 57.1333 147.152 56.795 150.186 56.795C151.306 56.795 152.472 56.8767 153.686 57.04L153.616 56.27C153.522 55.3367 153.079 54.6017 152.286 54.065C151.492 53.505 150.477 53.225 149.241 53.225C148.004 53.225 146.767 53.61 145.531 54.38L143.991 49.305C145.997 48.4883 148.284 48.08 150.851 48.08C153.417 48.08 155.447 48.6633 156.941 49.83C158.434 50.9733 159.181 52.77 159.181 55.22C159.181 55.78 159.157 56.2233 159.111 56.55L158.131 66.21L154.666 66.525L154.141 61.45H153.861C153.067 63.13 151.971 64.4483 150.571 65.405C149.171 66.3383 147.561 66.805 145.741 66.805ZM153.826 58.51L151.971 58.475C150.431 58.475 149.171 58.5567 148.191 58.72C147.864 59.3733 147.701 59.9567 147.701 60.47C147.701 60.9833 147.771 61.4733 147.911 61.94C148.051 62.4067 148.202 62.7217 148.366 62.885C151.166 62.4417 152.986 60.9833 153.826 58.51ZM165.553 66.525L163.768 49.2L171.258 48.045L169.018 66.21L165.553 66.525ZM164.853 45.315C164.223 44.6617 163.908 43.8917 163.908 43.005C163.908 42.1183 164.223 41.36 164.853 40.73C165.507 40.0767 166.277 39.75 167.163 39.75C168.05 39.75 168.808 40.0767 169.438 40.73C170.092 41.36 170.418 42.1183 170.418 43.005C170.418 43.8917 170.092 44.6617 169.438 45.315C168.808 45.945 168.05 46.26 167.163 46.26C166.277 46.26 165.507 45.945 164.853 45.315ZM189.896 47.695C190.34 47.695 190.771 47.765 191.191 47.905C192.381 49.3517 193.198 51.86 193.641 55.43C194.085 58.9767 194.306 62.5 194.306 66L188.006 66.525C188.006 61.1583 187.808 56.27 187.411 51.86C184.308 53.0033 182.243 57.7867 181.216 66.21L177.751 66.525L175.966 49.165L183.456 48.01L182.686 54.17H183.001C183.935 52.14 184.996 50.5533 186.186 49.41C187.376 48.2667 188.613 47.695 189.896 47.695ZM198.512 50.6C198.512 47.31 200.262 44.2767 203.762 41.5L210.167 45.77C207.274 47.59 205.827 49.515 205.827 51.545C205.827 52.4083 206.119 53.3183 206.702 54.275C207.285 55.2317 207.869 56.1767 208.452 57.11C209.059 58.0433 209.362 58.9183 209.362 59.735C209.362 63.1183 207.029 65.7317 202.362 67.575L200.682 65.3C201.825 64.67 202.619 64.0633 203.062 63.48C203.505 62.8967 203.727 62.255 203.727 61.555C203.727 60.855 203.447 60.0733 202.887 59.21C202.35 58.3233 201.755 57.5183 201.102 56.795C200.472 56.0717 199.877 55.15 199.317 54.03C198.78 52.91 198.512 51.7667 198.512 50.6ZM217.155 66.525L215.65 52.385L212.43 52.84L212.22 49.235L215.3 49.095L214.775 44.195L223.49 43.04L222.79 48.71L226.255 48.535L226.15 50.88L222.44 51.405L220.62 66.21L217.155 66.525ZM243.203 59.56C243.203 62.1033 242.643 63.9583 241.523 65.125C240.426 66.2683 238.385 66.84 235.398 66.84C232.411 66.84 230.078 66.1633 228.398 64.81C228.048 63.13 227.873 61.45 227.873 59.77C227.873 58.09 228.106 56.515 228.573 55.045C229.063 53.5517 229.67 52.28 230.393 51.23C231.91 49.0833 233.263 47.7183 234.453 47.135C236.693 48.2783 238.665 49.83 240.368 51.79C242.258 53.9367 243.203 56.5267 243.203 59.56ZM239.143 58.615C239.143 56.3983 238.676 54.3683 237.743 52.525C235.806 53.5517 234.208 55.115 232.948 57.215C231.688 59.315 231.058 61.4383 231.058 63.585C231.805 63.725 232.878 63.795 234.278 63.795C235.678 63.795 237.113 63.55 238.583 63.06C238.956 61.6367 239.143 60.155 239.143 58.615ZM258.361 54.485C256.774 54.485 255.573 55.045 254.756 56.165C253.939 57.2617 253.344 59.2917 252.971 62.255L252.481 66.21L249.016 66.525L247.231 49.165L254.721 48.01L254.021 53.61H254.266C256.133 49.5967 258.513 47.4617 261.406 47.205L260.426 54.66C259.563 54.5433 258.874 54.485 258.361 54.485ZM276.901 47.695C277.345 47.695 277.776 47.765 278.196 47.905C279.106 49.025 279.841 51.055 280.401 53.995H280.681C281.521 52.035 282.49 50.495 283.586 49.375C284.706 48.255 285.861 47.695 287.051 47.695C287.495 47.695 287.926 47.765 288.346 47.905C289.536 49.3517 290.353 51.8833 290.796 55.5C291.24 59.1167 291.461 62.6867 291.461 66.21L285.161 66.525C285.161 61.0183 284.986 56.13 284.636 51.86C281.836 52.98 279.981 57.7633 279.071 66.21L275.011 66.525C275.011 61.0183 274.836 56.13 274.486 51.86C273.436 52.28 272.41 53.4 271.406 55.22C270.426 57.0167 269.703 59.8283 269.236 63.655L268.921 66.21L265.456 66.525L263.671 49.165L271.161 48.01L270.496 53.47H270.741C272.538 49.62 274.591 47.695 276.901 47.695Z" fill="#CFD3FF"/>
</svg>
