<svg xmlns="http://www.w3.org/2000/svg" direction="ltr" width="1048.03" height="605.17" viewBox="925.88 1037.39 1048.03 605.17" stroke-linecap="round" stroke-linejoin="round" style="background-color: transparent;"><defs/><g transform="matrix(1, 0, 0, 1, 1145.41, 1069.34)" opacity="1"><g><path d="M0,270.6330744122702a277.96396320787926,270.6330744122702,0,1,1,555.9279264157585,0a277.96396320787926,270.6330744122702,0,1,1,-555.9279264157585,0" fill="#dbf0e0"/><path d="M0,270.6330744122702a277.96396320787926,270.6330744122702,0,1,1,555.9279264157585,0a277.96396320787926,270.6330744122702,0,1,1,-555.9279264157585,0" stroke-width="3.5" width="555.92" height="541.26" fill="none" stroke="#40c057"/></g></g><g transform="matrix(1, 0, 0, 1, 957.88, 1192.32)" opacity="1"><g><path d="M0, 0L465.58, 0,465.58, 418.24,0, 418.24Z" fill="#f9f0e6"/><path d="M0, 0L465.58, 0,465.58, 418.24,0, 418.24Z" stroke-width="3.5" stroke="#ffc078" fill="none"/></g></g><g transform="matrix(1, 0, 0, 1, 1423.46, 1170.53)" opacity="1"><g><path d="M259.23, 0L518.45, 440.04,0, 440.04Z" fill="#f4dadb"/><path d="M259.23, 0L518.45, 440.04,0, 440.04Z" stroke-width="3.5" stroke="#e03131" fill="none"/></g></g></svg>