<svg viewBox="0 0 100 100" fill="none" xmlns="http://www.w3.org/2000/svg">
<path d="M49.9999 18.7501C50.0154 16.1433 49.0529 13.6255 47.3025 11.6938C45.5521 9.76207 43.141 8.55687 40.5454 8.31614C37.9497 8.07541 35.3581 8.81666 33.2824 10.3935C31.2066 11.9704 29.7975 14.2683 29.3333 16.8334C27.9597 17.0907 26.652 17.6218 25.488 18.395C24.324 19.1682 23.3274 20.1677 22.5576 21.334C21.7879 22.5003 21.2607 23.8095 21.0074 25.1838C20.7541 26.5581 20.7799 27.9693 21.0833 29.3334C19.2027 29.6672 17.4501 30.5117 16.0171 31.7745C14.5841 33.0372 13.5259 34.6697 12.9582 36.4933C12.3905 38.317 12.335 40.2616 12.798 42.1147C13.261 43.9677 14.2245 45.6577 15.5833 47C13.298 48.0551 11.3845 49.7755 10.0931 51.9361C8.80179 54.0967 8.19281 56.5968 8.3459 59.1092C8.49899 61.6216 9.407 64.0293 10.9511 66.0171C12.4952 68.0049 14.6035 69.4803 16.9999 70.2501C16.5424 71.9786 16.5375 73.7959 16.9857 75.5268C17.4339 77.2578 18.3202 78.8443 19.5592 80.1335C20.7982 81.4228 22.3482 82.3714 24.0601 82.888C25.7719 83.4046 27.5879 83.4719 29.3333 83.0834C29.7634 85.4893 31.0258 87.6673 32.8996 89.2364C34.7734 90.8055 37.1393 91.6658 39.5833 91.6667C44.6249 91.6667 49.9999 88.5834 49.9999 81.2501M49.9999 18.7501C49.9845 16.1433 50.947 13.6255 52.6974 11.6938C54.4478 9.76207 56.8588 8.55687 59.4545 8.31614C62.0501 8.07541 64.6417 8.81666 66.7175 10.3935C68.7933 11.9704 70.2024 14.2683 70.6666 16.8334C72.0401 17.0907 73.3478 17.6218 74.5119 18.395C75.6759 19.1682 76.6725 20.1677 77.4422 21.334C78.212 22.5003 78.7392 23.8095 78.9925 25.1838C79.2458 26.5581 79.22 27.9693 78.9166 29.3334C80.7972 29.6672 82.5498 30.5117 83.9827 31.7745C85.4157 33.0372 86.4739 34.6697 87.0417 36.4933C87.6094 38.317 87.6648 40.2616 87.2019 42.1147C86.7389 43.9677 85.7754 45.6577 84.4166 47C86.7019 48.0551 88.6154 49.7755 89.9067 51.9361C91.1981 54.0967 91.807 56.5968 91.654 59.1092C91.5009 61.6216 90.5929 64.0293 89.0488 66.0171C87.5047 68.0049 85.3964 69.4803 82.9999 70.2501C83.4575 71.9786 83.4624 73.7959 83.0142 75.5268C82.5659 77.2578 81.6796 78.8443 80.4406 80.1335C79.2016 81.4228 77.6516 82.3714 75.9398 82.888C74.228 83.4046 72.412 83.4719 70.6666 83.0834C70.2365 85.4893 68.974 87.6673 67.1003 89.2364C65.2265 90.8055 62.8606 91.6658 60.4166 91.6667C55.3749 91.6667 49.9999 88.5834 49.9999 81.2501M49.9999 18.7501V20.8334V18.7501ZM49.9999 81.2501V79.1667V81.2501Z" fill="#7B52BE"/>
<path d="M49.9984 25C49.0817 25 48.3317 26.4928 48.3317 28.3335C48.3317 29.2159 48.5088 30.0618 48.8213 30.6847C48.3317 30.7066 47.8837 30.8056 47.3941 30.9379V32.589C49.1755 32.3369 50.9464 32.3484 52.6028 32.589V30.9379C52.134 30.7972 51.6235 30.7181 51.1756 30.6847C51.4881 30.0618 51.6652 29.2159 51.6652 28.3335C51.6652 26.4928 50.9152 25 49.9984 25ZM32.313 32.3223C31.6619 32.9734 32.189 34.5537 33.4901 35.8559C34.1224 36.4809 34.8412 36.9601 35.5079 37.1789C35.1746 37.5435 34.9246 37.9289 34.6746 38.3665L35.8517 39.5332C36.883 38.1373 38.1331 36.8872 39.529 35.8559L38.3623 34.6787C37.9248 34.9079 37.5289 35.2204 37.1747 35.5121C36.956 34.8454 36.4768 34.1266 35.8517 33.5016C35.0183 32.8547 33.2943 31.3764 32.313 32.3223ZM64.1452 33.4995C63.5201 34.1266 63.0409 34.8454 62.8222 35.5121C62.4576 35.1788 62.0721 34.9287 61.6346 34.6787L60.4678 35.8559C61.8638 36.8872 63.1138 38.1373 64.1452 39.5332L65.3223 38.3665C65.0931 37.9289 64.7806 37.5331 64.4889 37.1789C65.1452 36.9497 65.864 36.4809 66.489 35.8559C67.7912 34.5537 68.3225 32.9713 67.6662 32.3213C66.6349 31.5014 64.7494 32.9067 64.1452 33.4995ZM49.3213 34.2829C45.4877 34.4495 42.0084 35.9809 39.3624 38.4081C39.0186 38.7311 38.6748 39.0644 38.404 39.3665C35.9767 42.0125 34.4454 45.4919 34.2787 49.3359C34.2787 49.8047 34.2579 50.2839 34.2891 50.6901C34.4454 54.5237 35.9767 58.0031 38.404 60.6491C38.7269 60.9825 39.0707 61.3262 39.3624 61.6075C42.0084 64.0243 45.4877 65.5557 49.3213 65.7223H49.3421C49.7693 65.7432 50.2485 65.7223 50.6756 65.7223C54.5091 65.5557 57.9885 64.0243 60.6345 61.5971C60.9783 61.2741 61.3221 60.9408 61.5929 60.6387C64.0201 57.9927 65.5515 54.5133 65.7182 50.6797V50.6589C65.739 50.2214 65.7182 49.7526 65.7182 49.3255C65.5515 45.4919 64.0201 42.0125 61.5929 39.3665C61.27 39.0227 60.9366 38.679 60.6345 38.4081C57.9885 35.9809 54.5091 34.4495 50.6756 34.2829C50.2068 34.262 49.7276 34.2829 49.3213 34.2829ZM49.9984 35.3975C50.4568 35.3975 50.8318 35.7725 50.8318 36.2309C50.8318 36.6893 50.4568 37.0643 49.9984 37.0643C49.5401 37.0643 49.1651 36.6893 49.1651 36.2309C49.1651 35.7725 49.5401 35.3975 49.9984 35.3975ZM50.7172 38.356C53.3945 38.5227 55.8321 39.5853 57.7281 41.2625C58.0823 41.5854 58.426 41.9188 58.7386 42.273C60.4158 44.1689 61.4783 46.6066 61.645 49.2942C61.6867 49.7734 61.645 50.2526 61.645 50.7214C61.4783 53.3986 60.4158 55.8363 58.7386 57.7323C58.4156 58.0864 58.0823 58.4302 57.7281 58.7427C55.8321 60.4199 53.3945 61.4825 50.7068 61.6492C50.2276 61.6596 49.7484 61.6908 49.2796 61.6492C46.6024 61.4825 44.1647 60.4199 42.2792 58.7427H42.2688C41.9146 58.4302 41.5812 58.0864 41.2687 57.7323C39.5915 55.8467 38.5186 53.4091 38.3519 50.7214C38.3415 50.2422 38.3102 49.7734 38.3519 49.3046C38.404 46.617 39.7374 44.0439 41.2583 42.273C41.5812 41.9188 41.9146 41.575 42.2688 41.2625C44.1647 39.5853 46.6024 38.5227 49.2901 38.356C49.7693 38.3144 50.2485 38.356 50.7172 38.356ZM40.8416 39.6686C41.1646 39.9916 41.1646 40.5228 40.8416 40.8458C40.5187 41.1687 39.9874 41.1687 39.6645 40.8458C39.3415 40.5228 39.3415 39.9916 39.6645 39.6686C40.0291 39.3665 40.5187 39.3665 40.8416 39.6686ZM60.3324 39.6686C60.6554 39.9916 60.6554 40.5228 60.3324 40.8458C60.0095 41.1687 59.4782 41.1687 59.1553 40.8458C58.8323 40.5228 58.8323 39.9916 59.1553 39.6686C59.5199 39.3665 60.0095 39.3665 60.3324 39.6686ZM48.3317 40.3457V41.2521C48.5921 41.5854 48.79 41.825 49.1442 41.9604C49.0713 43.2522 48.9775 44.5752 48.8525 45.8878C49.6234 45.6898 50.436 45.6794 51.1548 45.8982C51.0298 44.5752 50.9256 43.2522 50.8527 41.95C51.6756 41.7313 51.6652 41.0541 51.6652 40.3457C50.5193 40.1687 49.3942 40.1791 48.3317 40.3457ZM44.3418 41.9917C43.4355 42.6376 42.6334 43.4397 41.9875 44.346L42.6334 44.9919C43.0501 45.044 43.3626 45.0752 43.7064 44.919C44.571 45.8878 45.4357 46.8878 46.2795 47.9087C46.6649 47.2316 47.2274 46.6691 47.915 46.2836C46.8837 45.4398 45.8836 44.5752 44.9148 43.7105C45.1023 43.3876 45.0502 43.0126 44.9877 42.6376L44.3418 41.9917ZM55.655 41.9917L55.0092 42.6376C54.9362 43.0543 54.9258 43.3564 55.0717 43.7105C54.1133 44.5752 53.1028 45.4398 52.0819 46.2836C52.759 46.6691 53.3216 47.2316 53.707 47.9191C54.5508 46.8878 55.4259 45.8878 56.2801 44.919C56.6134 45.096 56.978 45.0544 57.3531 44.9919L57.9989 44.346C57.3531 43.4397 56.5613 42.6376 55.655 41.9917ZM67.4058 47.3983C67.6662 49.1796 67.6454 50.9506 67.4058 52.6069H69.0621C69.2184 52.1382 69.2705 51.6277 69.3017 51.1798C69.9268 51.4923 70.781 51.6694 71.6665 51.6694C73.5103 51.6694 75 50.9193 75 50.0026C75 49.0859 73.5103 48.3358 71.6665 48.3358C70.781 48.3358 69.9268 48.5129 69.3017 48.8254C69.2913 48.3358 69.1976 47.8879 69.0621 47.3983H67.4058ZM30.9379 47.4087C30.7972 47.8775 30.7181 48.3671 30.6879 48.8254C30.0607 48.5129 29.2138 48.3463 28.3335 48.3463C26.4928 48.3463 25 49.0963 25 50.013C25 50.9297 26.4928 51.6798 28.3335 51.6798C29.2169 51.6798 30.0639 51.5027 30.6879 51.1902C30.7035 51.6798 30.8045 52.1277 30.9379 52.6174H32.5838C32.3359 50.836 32.3234 49.065 32.5838 47.4087H30.9379ZM49.9984 47.6066C48.6546 47.6066 47.6025 48.6692 47.6025 50.0026C47.6025 51.336 48.6546 52.3986 49.9984 52.3986C51.3319 52.3986 52.3944 51.336 52.3944 50.0026C52.3944 48.6692 51.3319 47.6066 49.9984 47.6066ZM58.749 48.3358C58.4156 48.5963 58.176 48.7942 58.0406 49.1484C56.7489 49.0755 55.4259 48.9817 54.1133 48.8567C54.3112 49.638 54.3112 50.4401 54.1133 51.1589C55.4259 51.0339 56.7384 50.9297 58.0406 50.8568C58.1448 51.2214 58.4365 51.4506 58.749 51.6694H59.6553C59.8324 50.5235 59.822 49.3984 59.6553 48.3358H58.749ZM40.3416 48.3463C40.1645 49.4817 40.1853 50.6172 40.3416 51.6798H41.2479C41.5708 51.4194 41.8313 51.2318 41.9459 50.8672C43.248 50.9297 44.5606 51.0339 45.8836 51.1589C45.6753 50.3776 45.6752 49.5755 45.8732 48.8567C44.5606 48.9817 43.2376 49.0755 41.9459 49.1484C41.8521 48.7838 41.55 48.5546 41.2479 48.3463H40.3416ZM63.7701 49.1692C64.2285 49.1692 64.6035 49.5442 64.6035 50.0026C64.6035 50.461 64.2285 50.836 63.7701 50.836C63.3118 50.836 62.9367 50.461 62.9367 50.0026C62.9367 49.5442 63.3118 49.1692 63.7701 49.1692ZM36.2267 49.1796C36.6851 49.1796 37.0601 49.5547 37.0601 50.013C37.0601 50.4714 36.6851 50.8464 36.2267 50.8464C35.7684 50.8464 35.3934 50.4714 35.3934 50.013C35.3934 49.5547 35.7684 49.1796 36.2267 49.1796ZM53.7174 52.0965C53.332 52.7736 52.7694 53.3361 52.0819 53.7216C53.1132 54.5654 54.1133 55.43 55.0821 56.2947C54.8946 56.6176 54.9467 56.9926 55.0092 57.3676L55.655 58.0135C56.5613 57.3676 57.3635 56.5655 58.0094 55.6592L57.3635 55.0133C56.9468 54.9612 56.6343 54.93 56.2905 55.0863C55.4259 54.1174 54.5612 53.1174 53.7174 52.0965ZM46.2795 52.0965C45.4357 53.1174 44.571 54.1174 43.7064 55.0863C43.3834 54.8987 43.0084 54.9508 42.6438 55.0133L41.9875 55.6592C42.6334 56.5759 43.4355 57.3781 44.3523 58.0135L44.9981 57.3676C45.0502 56.951 45.0815 56.6384 44.9252 56.2947C45.894 55.43 46.8941 54.5654 47.915 53.7216C47.2378 53.3361 46.6649 52.7736 46.2795 52.0965ZM48.8421 54.107C48.9671 55.43 49.0713 56.753 49.1442 58.0552C48.7796 58.1385 48.54 58.451 48.3317 58.7532V59.6595C49.4776 59.8366 50.6026 59.8261 51.6652 59.6595V58.7532C51.4048 58.4198 51.2068 58.1802 50.8527 58.0448C50.9256 56.753 51.0193 55.43 51.1443 54.1174C50.3422 54.2529 49.4984 54.2945 48.8421 54.107ZM40.852 59.1594C41.175 59.4824 41.175 60.0136 40.852 60.3366C40.5291 60.6595 39.9978 60.6595 39.6749 60.3366C39.3519 60.0136 39.3519 59.4824 39.6749 59.1594C40.0395 58.8469 40.5291 58.8469 40.852 59.1594ZM60.3324 59.1594C60.6554 59.4824 60.6554 60.0136 60.3324 60.3366C60.0095 60.6595 59.4782 60.6595 59.1553 60.3366C58.8323 60.0136 58.8323 59.4824 59.1553 59.1594C59.5199 58.8469 60.0199 58.8469 60.3324 59.1594ZM64.1452 60.472C63.1138 61.8679 61.8638 63.118 60.4678 64.1493L61.6346 65.3265C62.0721 65.0973 62.468 64.7848 62.8222 64.4931C63.0409 65.1598 63.5201 65.8786 64.1452 66.5036C65.4473 67.8058 67.0203 68.3267 67.6766 67.6808C68.3225 67.0245 67.8016 65.4515 66.4995 64.1493C65.8744 63.5243 65.1556 63.0451 64.4889 62.8263C64.8223 62.4617 65.0723 62.0763 65.3223 61.6387L64.1452 60.472ZM35.8517 60.472L34.685 61.6387C34.9246 62.0659 35.2163 62.493 35.5184 62.8263C34.8517 63.0451 34.1329 63.5243 33.5005 64.1493C32.2015 65.4515 31.6754 67.0245 32.3234 67.6808C32.9734 68.3371 34.56 67.8058 35.8621 66.5036C36.4872 65.8786 36.9664 65.1598 37.1851 64.4931C37.5497 64.8265 37.9352 65.0765 38.3727 65.3265L39.5395 64.1597C38.1331 63.118 36.8935 61.8783 35.8517 60.472ZM49.9984 62.9409C50.4568 62.9409 50.8318 63.3159 50.8318 63.7743C50.8318 64.2327 50.4568 64.6077 49.9984 64.6077C49.5401 64.6077 49.1651 64.2327 49.1651 63.7743C49.1651 63.3159 49.5401 62.9409 49.9984 62.9409ZM47.3941 67.4204V69.0663C47.8629 69.2121 48.3733 69.2851 48.8213 69.3163C48.5088 69.9413 48.3317 70.7852 48.3317 71.6706C48.3317 73.5145 49.0817 75.0042 49.9984 75.0042C50.9152 75.0042 51.6652 73.5145 51.6652 71.6706C51.6652 70.7852 51.4881 69.9413 51.1756 69.3163C51.6652 69.2955 52.1132 69.2017 52.6028 69.0663V67.4099C50.8214 67.6704 49.0505 67.66 47.3941 67.4204Z" fill="#ECF0F1"/>
</svg>
