<svg xmlns="http://www.w3.org/2000/svg" direction="ltr" width="409.02" height="255.35" viewBox="518.84 176.95 409.02 255.35" stroke-linecap="round" stroke-linejoin="round" style="background-color: transparent;"><defs><!--def: tldraw:font:pattern--><mask id="hash_pattern_mask">
							<rect x="0" y="0" width="8" height="8" fill="white"/>
							<g strokelinecap="round" stroke="black">
								<line x1="0.66" y1="2" x2="2" y2="0.66"/>
								<line x1="3.33" y1="4.66" x2="4.66" y2="3.33"/>
								<line x1="6" y1="7.33" x2="7.33" y2="6"/>
							</g>
						</mask><pattern id="hash_pattern" width="8" height="8" patternUnits="userSpaceOnUse">
							<rect x="0" y="0" width="8" height="8" fill="#fcfffe" mask="url(#hash_pattern_mask)"/>
						</pattern></defs><g transform="matrix(1, 0, 0, 1, 621.55, 208.99)" opacity="1"><g><g><path d="M67.923,11.6548 A29.7191,29.7191 0 0,1 111.73,7.8732 A34.1106,34.1106 0 0,1 155.15,8.8794 A25.6572,25.6572 0 0,1 186.83,36.2579 A25.374,25.374 0 0,1 202.10,74.4462 A27.5926,27.5926 0 0,1 181.30,111.2686 A25.7914,25.7914 0 0,1 142.22,127.5335 A31.0101,31.0101 0 0,1 96.12,126.5553 A26.2117,26.2117 0 0,1 53.29,124.4175 A26.1676,26.1676 0 0,1 18.90,104.1906 A26.2805,26.2805 0 0,1 10.91,64.5656 A25.2258,25.2258 0 0,1 30.10,25.4677 A23.3879,23.3879 0 0,1 67.92,11.6548M67.6672,12.3657 A28.2978,28.2978 0 0,1 111.99,8.1803 A30.3213,30.3213 0 0,1 155.47,9.7989 A25.3284,25.3284 0 0,1 186.32,36.7856 A22.7439,22.7439 0 0,1 201.42,73.8367 A26.4276,26.4276 0 0,1 180.60,110.8663 A23.676,23.676 0 0,1 142.60,127.4707 A32.7198,32.7198 0 0,1 96.32,127.1446 A26.5902,26.5902 0 0,1 53.96,125.1729 A28.5484,28.5484 0 0,1 18.81,104.3326 A26.2783,26.2783 0 0,1 11.65,64.8189 A25.0749,25.0749 0 0,1 29.29,25.2683 A24.9195,24.9195 0 0,1 68.50,11.8375 Z" fill="#6fbbf8"/><path d="M67.923,11.6548 A29.7191,29.7191 0 0,1 111.73,7.8732 A34.1106,34.1106 0 0,1 155.15,8.8794 A25.6572,25.6572 0 0,1 186.83,36.2579 A25.374,25.374 0 0,1 202.10,74.4462 A27.5926,27.5926 0 0,1 181.30,111.2686 A25.7914,25.7914 0 0,1 142.22,127.5335 A31.0101,31.0101 0 0,1 96.12,126.5553 A26.2117,26.2117 0 0,1 53.29,124.4175 A26.1676,26.1676 0 0,1 18.90,104.1906 A26.2805,26.2805 0 0,1 10.91,64.5656 A25.2258,25.2258 0 0,1 30.10,25.4677 A23.3879,23.3879 0 0,1 67.92,11.6548M67.6672,12.3657 A28.2978,28.2978 0 0,1 111.99,8.1803 A30.3213,30.3213 0 0,1 155.47,9.7989 A25.3284,25.3284 0 0,1 186.32,36.7856 A22.7439,22.7439 0 0,1 201.42,73.8367 A26.4276,26.4276 0 0,1 180.60,110.8663 A23.676,23.676 0 0,1 142.60,127.4707 A32.7198,32.7198 0 0,1 96.32,127.1446 A26.5902,26.5902 0 0,1 53.96,125.1729 A28.5484,28.5484 0 0,1 18.81,104.3326 A26.2783,26.2783 0 0,1 11.65,64.8189 A25.0749,25.0749 0 0,1 29.29,25.2683 A24.9195,24.9195 0 0,1 68.50,11.8375 Z" fill="url(#hash_pattern)"/></g><path d="M67.923,11.6548 A29.7191,29.7191 0 0,1 111.73,7.8732 A34.1106,34.1106 0 0,1 155.15,8.8794 A25.6572,25.6572 0 0,1 186.83,36.2579 A25.374,25.374 0 0,1 202.10,74.4462 A27.5926,27.5926 0 0,1 181.30,111.2686 A25.7914,25.7914 0 0,1 142.22,127.5335 A31.0101,31.0101 0 0,1 96.12,126.5553 A26.2117,26.2117 0 0,1 53.29,124.4175 A26.1676,26.1676 0 0,1 18.90,104.1906 A26.2805,26.2805 0 0,1 10.91,64.5656 A25.2258,25.2258 0 0,1 30.10,25.4677 A23.3879,23.3879 0 0,1 67.92,11.6548M67.6672,12.3657 A28.2978,28.2978 0 0,1 111.99,8.1803 A30.3213,30.3213 0 0,1 155.47,9.7989 A25.3284,25.3284 0 0,1 186.32,36.7856 A22.7439,22.7439 0 0,1 201.42,73.8367 A26.4276,26.4276 0 0,1 180.60,110.8663 A23.676,23.676 0 0,1 142.60,127.4707 A32.7198,32.7198 0 0,1 96.32,127.1446 A26.5902,26.5902 0 0,1 53.96,125.1729 A28.5484,28.5484 0 0,1 18.81,104.3326 A26.2783,26.2783 0 0,1 11.65,64.8189 A25.0749,25.0749 0 0,1 29.29,25.2683 A24.9195,24.9195 0 0,1 68.50,11.8375 Z" stroke-width="2" stroke="#4dabf7" fill="none"/></g></g><g transform="matrix(1, 0, 0, 1, 546.52, 262.68)" opacity="1"><g><g><path d="M71.4742,8.424 A27.0952,27.0952 0 0,1 113.67,12.4055 A22.4175,22.4175 0 0,1 152.75,13.5693 A23.99,23.99 0 0,1 188.88,36.0506 A27.1098,27.1098 0 0,1 202.28,75.4086 A32.618,32.618 0 0,1 181.71,115.4496 A30.1959,30.1959 0 0,1 138.71,128.0756 A26.2748,26.2748 0 0,1 97.57,125.7901 A29.1914,29.1914 0 0,1 53.34,127.8373 A29.7081,29.7081 0 0,1 20.05,104.7827 A28.1171,28.1171 0 0,1 9.27,63.5732 A27.0471,27.0471 0 0,1 30.65,24.3389 A27.0921,27.0921 0 0,1 71.47,8.424M72.4506,8.0138 A28.9797,28.9797 0 0,1 114.12,12.3209 A22.453,22.453 0 0,1 152.50,14.1444 A24.0348,24.0348 0 0,1 188.77,36.7838 A24.7179,24.7179 0 0,1 201.62,75.9857 A28.4374,28.4374 0 0,1 181.51,114.7818 A31.9743,31.9743 0 0,1 137.87,128.2008 A26.13,26.13 0 0,1 98.53,126.1294 A32.0468,32.0468 0 0,1 54.28,128.1885 A27.992,27.992 0 0,1 20.78,104.7646 A27.7781,27.7781 0 0,1 8.79,64.3123 A28.8154,28.8154 0 0,1 30.77,23.5498 A26.8035,26.8035 0 0,1 72.17,8.8741 Z" fill="#65cb78"/><path d="M71.4742,8.424 A27.0952,27.0952 0 0,1 113.67,12.4055 A22.4175,22.4175 0 0,1 152.75,13.5693 A23.99,23.99 0 0,1 188.88,36.0506 A27.1098,27.1098 0 0,1 202.28,75.4086 A32.618,32.618 0 0,1 181.71,115.4496 A30.1959,30.1959 0 0,1 138.71,128.0756 A26.2748,26.2748 0 0,1 97.57,125.7901 A29.1914,29.1914 0 0,1 53.34,127.8373 A29.7081,29.7081 0 0,1 20.05,104.7827 A28.1171,28.1171 0 0,1 9.27,63.5732 A27.0471,27.0471 0 0,1 30.65,24.3389 A27.0921,27.0921 0 0,1 71.47,8.424M72.4506,8.0138 A28.9797,28.9797 0 0,1 114.12,12.3209 A22.453,22.453 0 0,1 152.50,14.1444 A24.0348,24.0348 0 0,1 188.77,36.7838 A24.7179,24.7179 0 0,1 201.62,75.9857 A28.4374,28.4374 0 0,1 181.51,114.7818 A31.9743,31.9743 0 0,1 137.87,128.2008 A26.13,26.13 0 0,1 98.53,126.1294 A32.0468,32.0468 0 0,1 54.28,128.1885 A27.992,27.992 0 0,1 20.78,104.7646 A27.7781,27.7781 0 0,1 8.79,64.3123 A28.8154,28.8154 0 0,1 30.77,23.5498 A26.8035,26.8035 0 0,1 72.17,8.8741 Z" fill="url(#hash_pattern)"/></g><path d="M71.4742,8.424 A27.0952,27.0952 0 0,1 113.67,12.4055 A22.4175,22.4175 0 0,1 152.75,13.5693 A23.99,23.99 0 0,1 188.88,36.0506 A27.1098,27.1098 0 0,1 202.28,75.4086 A32.618,32.618 0 0,1 181.71,115.4496 A30.1959,30.1959 0 0,1 138.71,128.0756 A26.2748,26.2748 0 0,1 97.57,125.7901 A29.1914,29.1914 0 0,1 53.34,127.8373 A29.7081,29.7081 0 0,1 20.05,104.7827 A28.1171,28.1171 0 0,1 9.27,63.5732 A27.0471,27.0471 0 0,1 30.65,24.3389 A27.0921,27.0921 0 0,1 71.47,8.424M72.4506,8.0138 A28.9797,28.9797 0 0,1 114.12,12.3209 A22.453,22.453 0 0,1 152.50,14.1444 A24.0348,24.0348 0 0,1 188.77,36.7838 A24.7179,24.7179 0 0,1 201.62,75.9857 A28.4374,28.4374 0 0,1 181.51,114.7818 A31.9743,31.9743 0 0,1 137.87,128.2008 A26.13,26.13 0 0,1 98.53,126.1294 A32.0468,32.0468 0 0,1 54.28,128.1885 A27.992,27.992 0 0,1 20.78,104.7646 A27.7781,27.7781 0 0,1 8.79,64.3123 A28.8154,28.8154 0 0,1 30.77,23.5498 A26.8035,26.8035 0 0,1 72.17,8.8741 Z" stroke-width="2" stroke="#40c057" fill="none"/></g></g><g transform="matrix(1, 0, 0, 1, 689.79, 262.84)" opacity="1"><g><g><path d="M69.0672,10.8523 A30.0654,30.0654 0 0,1 113.86,9.094 A28.4016,28.4016 0 0,1 153.65,9.9662 A24.8586,24.8586 0 0,1 186.84,36.0687 A25.5302,25.5302 0 0,1 202.00,74.7195 A31.3886,31.3886 0 0,1 180.34,115.6129 A29.3619,29.3619 0 0,1 139.03,128.4878 A29.4252,29.4252 0 0,1 100.19,129.6448 A31.2567,31.2567 0 0,1 54.09,124.4368 A25.5263,25.5263 0 0,1 19.13,102.7163 A28.5566,28.5566 0 0,1 8.45,62.3939 A28.5538,28.5538 0 0,1 28.04,24.5611 A26.3725,26.3725 0 0,1 69.06,10.8523M69.2084,11.2846 A28.7963,28.7963 0 0,1 113.41,9.0865 A27.1809,27.1809 0 0,1 153.12,10.1321 A25.5346,25.5346 0 0,1 186.41,36.0848 A23.6967,23.6967 0 0,1 201.59,74.1167 A31.5472,31.5472 0 0,1 181.05,116.2826 A30.1669,30.1669 0 0,1 138.30,128.7561 A33.5331,33.5331 0 0,1 99.24,129.8332 A32.2895,32.2895 0 0,1 53.51,125.1474 A24.8448,24.8448 0 0,1 20.05,102.1629 A28.1788,28.1788 0 0,1 8.72,62.0658 A29.0955,29.0955 0 0,1 28.93,23.8276 A24.9277,24.9277 0 0,1 69.17,11.4084 Z" fill="#fecb92"/><path d="M69.0672,10.8523 A30.0654,30.0654 0 0,1 113.86,9.094 A28.4016,28.4016 0 0,1 153.65,9.9662 A24.8586,24.8586 0 0,1 186.84,36.0687 A25.5302,25.5302 0 0,1 202.00,74.7195 A31.3886,31.3886 0 0,1 180.34,115.6129 A29.3619,29.3619 0 0,1 139.03,128.4878 A29.4252,29.4252 0 0,1 100.19,129.6448 A31.2567,31.2567 0 0,1 54.09,124.4368 A25.5263,25.5263 0 0,1 19.13,102.7163 A28.5566,28.5566 0 0,1 8.45,62.3939 A28.5538,28.5538 0 0,1 28.04,24.5611 A26.3725,26.3725 0 0,1 69.06,10.8523M69.2084,11.2846 A28.7963,28.7963 0 0,1 113.41,9.0865 A27.1809,27.1809 0 0,1 153.12,10.1321 A25.5346,25.5346 0 0,1 186.41,36.0848 A23.6967,23.6967 0 0,1 201.59,74.1167 A31.5472,31.5472 0 0,1 181.05,116.2826 A30.1669,30.1669 0 0,1 138.30,128.7561 A33.5331,33.5331 0 0,1 99.24,129.8332 A32.2895,32.2895 0 0,1 53.51,125.1474 A24.8448,24.8448 0 0,1 20.05,102.1629 A28.1788,28.1788 0 0,1 8.72,62.0658 A29.0955,29.0955 0 0,1 28.93,23.8276 A24.9277,24.9277 0 0,1 69.17,11.4084 Z" fill="url(#hash_pattern)"/></g><path d="M69.0672,10.8523 A30.0654,30.0654 0 0,1 113.86,9.094 A28.4016,28.4016 0 0,1 153.65,9.9662 A24.8586,24.8586 0 0,1 186.84,36.0687 A25.5302,25.5302 0 0,1 202.00,74.7195 A31.3886,31.3886 0 0,1 180.34,115.6129 A29.3619,29.3619 0 0,1 139.03,128.4878 A29.4252,29.4252 0 0,1 100.19,129.6448 A31.2567,31.2567 0 0,1 54.09,124.4368 A25.5263,25.5263 0 0,1 19.13,102.7163 A28.5566,28.5566 0 0,1 8.45,62.3939 A28.5538,28.5538 0 0,1 28.04,24.5611 A26.3725,26.3725 0 0,1 69.06,10.8523M69.2084,11.2846 A28.7963,28.7963 0 0,1 113.41,9.0865 A27.1809,27.1809 0 0,1 153.12,10.1321 A25.5346,25.5346 0 0,1 186.41,36.0848 A23.6967,23.6967 0 0,1 201.59,74.1167 A31.5472,31.5472 0 0,1 181.05,116.2826 A30.1669,30.1669 0 0,1 138.30,128.7561 A33.5331,33.5331 0 0,1 99.24,129.8332 A32.2895,32.2895 0 0,1 53.51,125.1474 A24.8448,24.8448 0 0,1 20.05,102.1629 A28.1788,28.1788 0 0,1 8.72,62.0658 A29.0955,29.0955 0 0,1 28.93,23.8276 A24.9277,24.9277 0 0,1 69.17,11.4084 Z" stroke-width="2" stroke="#ffc078" fill="none"/></g></g></svg>