<svg width="50" height="50" viewBox="0 0 50 50" fill="none" xmlns="http://www.w3.org/2000/svg">
<path d="M25 9.37503C25.0077 8.07165 24.5264 6.81275 23.6513 5.84689C22.7761 4.88103 21.5705 4.27843 20.2727 4.15807C18.9749 4.03771 17.6791 4.40833 16.6412 5.19676C15.6033 5.9852 14.8987 7.13413 14.6666 8.41669C13.9799 8.54536 13.326 8.8109 12.744 9.19749C12.162 9.58408 11.6637 10.0838 11.2788 10.667C10.8939 11.2501 10.6303 11.9048 10.5037 12.5919C10.377 13.279 10.3899 13.9846 10.5416 14.6667C9.60134 14.8336 8.72505 15.2559 8.00856 15.8872C7.29207 16.5186 6.76297 17.3348 6.4791 18.2467C6.19523 19.1585 6.16752 20.1308 6.39901 21.0573C6.63049 21.9838 7.11226 22.8289 7.79163 23.5C6.64899 24.0276 5.69223 24.8878 5.04656 25.968C4.40089 27.0483 4.09641 28.2984 4.17295 29.5546C4.24949 30.8108 4.7035 32.0146 5.47555 33.0086C6.2476 34.0025 7.30173 34.7401 8.49997 35.125C8.27119 35.9893 8.26874 36.8979 8.49285 37.7634C8.71697 38.6289 9.16011 39.4222 9.77961 40.0668C10.3991 40.7114 11.1741 41.1857 12.03 41.444C12.886 41.7023 13.7939 41.736 14.6666 41.5417C14.8817 42.7446 15.5129 43.8336 16.4498 44.6182C17.3867 45.4027 18.5696 45.8329 19.7916 45.8334C22.3125 45.8334 25 44.2917 25 40.625M25 9.37503C24.9922 8.07165 25.4735 6.81275 26.3487 5.84689C27.2239 4.88103 28.4294 4.27843 29.7272 4.15807C31.0251 4.03771 32.3209 4.40833 33.3588 5.19676C34.3966 5.9852 35.1012 7.13413 35.3333 8.41669C36.0201 8.54536 36.6739 8.8109 37.2559 9.19749C37.838 9.58408 38.3362 10.0838 38.7211 10.667C39.106 11.2501 39.3696 11.9048 39.4963 12.5919C39.6229 13.279 39.61 13.9846 39.4583 14.6667C40.3986 14.8336 41.2749 15.2559 41.9914 15.8872C42.7079 16.5186 43.237 17.3348 43.5208 18.2467C43.8047 19.1585 43.8324 20.1308 43.6009 21.0573C43.3694 21.9838 42.8877 22.8289 42.2083 23.5C43.3509 24.0276 44.3077 24.8878 44.9534 25.968C45.599 27.0483 45.9035 28.2984 45.827 29.5546C45.7504 30.8108 45.2964 32.0146 44.5244 33.0086C43.7523 34.0025 42.6982 34.7401 41.5 35.125C41.7287 35.9893 41.7312 36.8979 41.5071 37.7634C41.283 38.6289 40.8398 39.4222 40.2203 40.0668C39.6008 40.7114 38.8258 41.1857 37.9699 41.444C37.114 41.7023 36.206 41.736 35.3333 41.5417C35.1182 42.7446 34.487 43.8336 33.5501 44.6182C32.6132 45.4027 31.4303 45.8329 30.2083 45.8334C27.6875 45.8334 25 44.2917 25 40.625M25 9.37503V10.4167ZM25 40.625V39.5834Z" fill="#7B52BE"/>
<path d="M25.4992 12C25.0409 12 24.6658 12.7464 24.6658 13.6668C24.6658 14.1079 24.7544 14.5309 24.9106 14.8424C24.6658 14.8533 24.4419 14.9028 24.1971 14.9689V15.7945C25.0877 15.6685 25.9732 15.6742 26.8014 15.7945V14.9689C26.567 14.8986 26.3118 14.859 26.0878 14.8424C26.2441 14.5309 26.3326 14.1079 26.3326 13.6668C26.3326 12.7464 25.9576 12 25.4992 12ZM16.6565 15.6612C16.3309 15.9867 16.5945 16.7769 17.2451 17.4279C17.5612 17.7405 17.9206 17.9801 18.254 18.0894C18.0873 18.2717 17.9623 18.4645 17.8373 18.6832L18.4259 19.2666C18.9415 18.5686 19.5666 17.9436 20.2645 17.4279L19.6811 16.8394C19.4624 16.954 19.2645 17.1102 19.0874 17.2561C18.978 16.9227 18.7384 16.5633 18.4259 16.2508C18.0092 15.9273 17.1471 15.1882 16.6565 15.6612ZM32.5726 16.2497C32.2601 16.5633 32.0205 16.9227 31.9111 17.2561C31.7288 17.0894 31.5361 16.9644 31.3173 16.8394L30.7339 17.4279C31.4319 17.9436 32.0569 18.5686 32.5726 19.2666L33.1612 18.6832C33.0466 18.4645 32.8903 18.2665 32.7445 18.0894C33.0726 17.9749 33.432 17.7405 33.7445 17.4279C34.3956 16.7769 34.6612 15.9857 34.3331 15.6606C33.8174 15.2507 32.8747 15.9534 32.5726 16.2497ZM25.1607 16.6414C23.2439 16.7248 21.5042 17.4904 20.1812 18.7041C20.0093 18.8655 19.8374 19.0322 19.702 19.1833C18.4884 20.5063 17.7227 22.246 17.6394 24.1679C17.6394 24.4023 17.6289 24.6419 17.6446 24.8451C17.7227 26.7619 18.4884 28.5016 19.702 29.8246C19.8634 29.9912 20.0353 30.1631 20.1812 30.3037C21.5042 31.5122 23.2439 32.2778 25.1607 32.3612H25.1711C25.3846 32.3716 25.6242 32.3612 25.8378 32.3612C27.7546 32.2778 29.4943 31.5122 30.8173 30.2985C30.9891 30.1371 31.161 29.9704 31.2965 29.8193C32.5101 28.4963 33.2757 26.7567 33.3591 24.8399V24.8294C33.3695 24.6107 33.3591 24.3763 33.3591 24.1627C33.2757 22.246 32.5101 20.5063 31.2965 19.1833C31.135 19.0114 30.9683 18.8395 30.8173 18.7041C29.4943 17.4904 27.7546 16.7248 25.8378 16.6414C25.6034 16.631 25.3638 16.6414 25.1607 16.6414ZM25.4992 17.1988C25.7284 17.1988 25.9159 17.3863 25.9159 17.6155C25.9159 17.8446 25.7284 18.0321 25.4992 18.0321C25.27 18.0321 25.0825 17.8446 25.0825 17.6155C25.0825 17.3863 25.27 17.1988 25.4992 17.1988ZM25.8586 18.678C27.1972 18.7614 28.4161 19.2926 29.364 20.1312C29.5411 20.2927 29.713 20.4594 29.8693 20.6365C30.7079 21.5845 31.2392 22.8033 31.3225 24.1471C31.3433 24.3867 31.3225 24.6263 31.3225 24.8607C31.2392 26.1993 30.7079 27.4182 29.8693 28.3661C29.7078 28.5432 29.5411 28.7151 29.364 28.8714C28.4161 29.71 27.1972 30.2412 25.8534 30.3246C25.6138 30.3298 25.3742 30.3454 25.1398 30.3246C23.8012 30.2412 22.5824 29.71 21.6396 28.8714H21.6344C21.4573 28.7151 21.2906 28.5432 21.1344 28.3661C20.2958 27.4234 19.7593 26.2045 19.6759 24.8607C19.6707 24.6211 19.6551 24.3867 19.6759 24.1523C19.702 22.8085 20.3687 21.5219 21.1292 20.6365C21.2906 20.4594 21.4573 20.2875 21.6344 20.1312C22.5824 19.2926 23.8012 18.7614 25.145 18.678C25.3846 18.6572 25.6242 18.678 25.8586 18.678ZM20.9208 19.3343C21.0823 19.4958 21.0823 19.7614 20.9208 19.9229C20.7593 20.0844 20.4937 20.0844 20.3322 19.9229C20.1708 19.7614 20.1708 19.4958 20.3322 19.3343C20.5145 19.1833 20.7593 19.1833 20.9208 19.3343ZM30.6662 19.3343C30.8277 19.4958 30.8277 19.7614 30.6662 19.9229C30.5047 20.0844 30.2391 20.0844 30.0776 19.9229C29.9162 19.7614 29.9162 19.4958 30.0776 19.3343C30.2599 19.1833 30.5047 19.1833 30.6662 19.3343ZM24.6658 19.6729V20.126C24.796 20.2927 24.895 20.4125 25.0721 20.4802C25.0356 21.1261 24.9888 21.7876 24.9263 22.4439C25.3117 22.3449 25.718 22.3397 26.0774 22.4491C26.0149 21.7876 25.9628 21.1261 25.9263 20.475C26.3378 20.3656 26.3326 20.0271 26.3326 19.6729C25.7597 19.5843 25.1971 19.5895 24.6658 19.6729ZM22.6709 20.4958C22.2178 20.8188 21.8167 21.2198 21.4938 21.673L21.8167 21.9959C22.025 22.022 22.1813 22.0376 22.3532 21.9595C22.7855 22.4439 23.2178 22.9439 23.6397 23.4544C23.8324 23.1158 24.1137 22.8345 24.4575 22.6418C23.9418 22.2199 23.4418 21.7876 22.9574 21.3553C23.0511 21.1938 23.0251 21.0063 22.9939 20.8188L22.6709 20.4958ZM28.3275 20.4958L28.0046 20.8188C27.9681 21.0271 27.9629 21.1782 28.0358 21.3553C27.5566 21.7876 27.0514 22.2199 26.541 22.6418C26.8795 22.8345 27.1608 23.1158 27.3535 23.4596C27.7754 22.9439 28.2129 22.4439 28.64 21.9595C28.8067 22.048 28.989 22.0272 29.1765 21.9959L29.4995 21.673C29.1765 21.2198 28.7807 20.8188 28.3275 20.4958ZM34.2029 23.1991C34.3331 24.0898 34.3227 24.9753 34.2029 25.8035H35.0311C35.1092 25.5691 35.1352 25.3139 35.1509 25.0899C35.4634 25.2461 35.8905 25.3347 36.3332 25.3347C37.2552 25.3347 38 24.9597 38 24.5013C38 24.0429 37.2552 23.6679 36.3332 23.6679C35.8905 23.6679 35.4634 23.7565 35.1509 23.9127C35.1457 23.6679 35.0988 23.4439 35.0311 23.1991H34.2029ZM15.9689 23.2043C15.8986 23.4387 15.859 23.6835 15.8439 23.9127C15.5304 23.7565 15.1069 23.6731 14.6668 23.6731C13.7464 23.6731 13 24.0481 13 24.5065C13 24.9649 13.7464 25.3399 14.6668 25.3399C15.1085 25.3399 15.5319 25.2513 15.8439 25.0951C15.8517 25.3399 15.9023 25.5639 15.9689 25.8087H16.7919C16.6679 24.918 16.6617 24.0325 16.7919 23.2043H15.9689ZM25.4992 23.3033C24.8273 23.3033 24.3012 23.8346 24.3012 24.5013C24.3012 25.168 24.8273 25.6993 25.4992 25.6993C26.1659 25.6993 26.6972 25.168 26.6972 24.5013C26.6972 23.8346 26.1659 23.3033 25.4992 23.3033ZM29.8745 23.6679C29.7078 23.7981 29.588 23.8971 29.5203 24.0742C28.8744 24.0377 28.2129 23.9909 27.5566 23.9283C27.6556 24.319 27.6556 24.7201 27.5566 25.0795C28.2129 25.017 28.8692 24.9649 29.5203 24.9284C29.5724 25.1107 29.7182 25.2253 29.8745 25.3347H30.3276C30.4162 24.7617 30.411 24.1992 30.3276 23.6679H29.8745ZM20.6708 23.6731C20.5822 24.2409 20.5927 24.8086 20.6708 25.3399H21.1239C21.2854 25.2097 21.4156 25.1159 21.4729 24.9336C22.124 24.9649 22.7803 25.017 23.4418 25.0795C23.3376 24.6888 23.3376 24.2877 23.4366 23.9283C22.7803 23.9909 22.1188 24.0377 21.4729 24.0742C21.426 23.8919 21.275 23.7773 21.1239 23.6731H20.6708ZM32.3851 24.0846C32.6142 24.0846 32.8018 24.2721 32.8018 24.5013C32.8018 24.7305 32.6142 24.918 32.3851 24.918C32.1559 24.918 31.9684 24.7305 31.9684 24.5013C31.9684 24.2721 32.1559 24.0846 32.3851 24.0846ZM18.6134 24.0898C18.8426 24.0898 19.0301 24.2773 19.0301 24.5065C19.0301 24.7357 18.8426 24.9232 18.6134 24.9232C18.3842 24.9232 18.1967 24.7357 18.1967 24.5065C18.1967 24.2773 18.3842 24.0898 18.6134 24.0898ZM27.3587 25.5482C27.166 25.8868 26.8847 26.1681 26.541 26.3608C27.0566 26.7827 27.5566 27.215 28.041 27.6473C27.9473 27.8088 27.9733 27.9963 28.0046 28.1838L28.3275 28.5068C28.7807 28.1838 29.1817 27.7828 29.5047 27.3296L29.1817 27.0067C28.9734 26.9806 28.8171 26.965 28.6452 27.0431C28.2129 26.5587 27.7806 26.0587 27.3587 25.5482ZM23.6397 25.5482C23.2178 26.0587 22.7855 26.5587 22.3532 27.0431C22.1917 26.9494 22.0042 26.9754 21.8219 27.0067L21.4938 27.3296C21.8167 27.788 22.2178 28.189 22.6761 28.5068L22.9991 28.1838C23.0251 27.9755 23.0407 27.8192 22.9626 27.6473C23.447 27.215 23.947 26.7827 24.4575 26.3608C24.1189 26.1681 23.8324 25.8868 23.6397 25.5482ZM24.9211 26.5535C24.9836 27.215 25.0356 27.8765 25.0721 28.5276C24.8898 28.5693 24.77 28.7255 24.6658 28.8766V29.3297C25.2388 29.4183 25.8013 29.4131 26.3326 29.3297V28.8766C26.2024 28.7099 26.1034 28.5901 25.9263 28.5224C25.9628 27.8765 26.0097 27.215 26.0722 26.5587C25.6711 26.6264 25.2492 26.6473 24.9211 26.5535ZM20.926 29.0797C21.0875 29.2412 21.0875 29.5068 20.926 29.6683C20.7645 29.8298 20.4989 29.8298 20.3374 29.6683C20.176 29.5068 20.176 29.2412 20.3374 29.0797C20.5197 28.9235 20.7645 28.9235 20.926 29.0797ZM30.6662 29.0797C30.8277 29.2412 30.8277 29.5068 30.6662 29.6683C30.5047 29.8298 30.2391 29.8298 30.0776 29.6683C29.9162 29.5068 29.9162 29.2412 30.0776 29.0797C30.2599 28.9235 30.5099 28.9235 30.6662 29.0797ZM32.5726 29.736C32.0569 30.434 31.4319 31.059 30.7339 31.5747L31.3173 32.1632C31.5361 32.0486 31.734 31.8924 31.9111 31.7465C32.0205 32.0799 32.2601 32.4393 32.5726 32.7518C33.2237 33.4029 34.0102 33.6633 34.3383 33.3404C34.6613 33.0123 34.4008 32.2257 33.7497 31.5747C33.4372 31.2621 33.0778 31.0225 32.7445 30.9132C32.9111 30.7309 33.0361 30.5381 33.1612 30.3194L32.5726 29.736ZM18.4259 29.736L17.8425 30.3194C17.9623 30.5329 18.1081 30.7465 18.2592 30.9132C17.9258 31.0225 17.5664 31.2621 17.2503 31.5747C16.6007 32.2257 16.3377 33.0123 16.6617 33.3404C16.9867 33.6685 17.78 33.4029 18.4311 32.7518C18.7436 32.4393 18.9832 32.0799 19.0926 31.7465C19.2749 31.9132 19.4676 32.0382 19.6864 32.1632L20.2697 31.5799C19.5666 31.059 18.9467 30.4392 18.4259 29.736ZM25.4992 30.9705C25.7284 30.9705 25.9159 31.158 25.9159 31.3872C25.9159 31.6163 25.7284 31.8038 25.4992 31.8038C25.27 31.8038 25.0825 31.6163 25.0825 31.3872C25.0825 31.158 25.27 30.9705 25.4992 30.9705ZM24.1971 33.2102V34.0331C24.4314 34.1061 24.6867 34.1425 24.9106 34.1582C24.7544 34.4707 24.6658 34.8926 24.6658 35.3353C24.6658 36.2572 25.0409 37.0021 25.4992 37.0021C25.9576 37.0021 26.3326 36.2572 26.3326 35.3353C26.3326 34.8926 26.2441 34.4707 26.0878 34.1582C26.3326 34.1477 26.5566 34.1009 26.8014 34.0331V33.205C25.9107 33.3352 25.0252 33.33 24.1971 33.2102Z" fill="#ECF0F1"/>
</svg>
